<?xml version="1.0" encoding="utf-8"?>
<svg xmlns="http://www.w3.org/2000/svg" viewBox="0 0 30 30" fill="#062c64"><path d="M 21.585938 3 L 20.585938 4 L 18 4 C 17.448 4 17 4.448 17 5 L 17 6 L 9.8164062 6 C 9.4033157 4.8371625 8.3046254 4 7 4 C 5.343 4 4 5.343 4 7 C 4 8.3793182 4.9354664 9.5282707 6.203125 9.8789062 L 10.564453 18.603516 C 11.615453 17.729516 12.890813 17.187969 14.257812 17.042969 L 9.7851562 8.0976562 C 9.7976194 8.0660511 9.8049959 8.0321198 9.8164062 8 L 17 8 L 17 9 C 17 9.552 17.448 10 18 10 L 20.585938 10 L 21.585938 11 L 26 11 L 26 9 L 22.414062 9 L 21 7.5859375 L 21 6.4140625 L 22.414062 5 L 26 5 L 26 3 L 21.585938 3 z M 7 6 C 7.5325331 6 7.9582099 6.4202688 7.9882812 6.9453125 A 1.0001 1.0001 0 0 0 7.9882812 7.0566406 C 7.9572338 7.5807564 7.5318666 8 7 8 C 6.448 8 6 7.552 6 7 C 6 6.448 6.448 6 7 6 z M 15 19 C 13.37 19 11.935437 19.792 11.023438 21 L 6 21 C 4.895 21 4 21.895 4 23 L 4 26 L 26 26 L 26 23 C 26 21.895 25.105 21 24 21 L 18.976562 21 C 18.063562 19.792 16.63 19 15 19 z M 15 22 C 15.552 22 16 22.448 16 23 C 16 23.552 15.552 24 15 24 C 14.448 24 14 23.552 14 23 C 14 22.448 14.448 22 15 22 z" fill="#062c64"/></svg>
