<?xml version="1.0" encoding="utf-8"?>
<svg xmlns="http://www.w3.org/2000/svg" viewBox="0 0 50 50" fill="#062c64"><path fill="none" stroke="#062c64" stroke-linecap="round" stroke-linejoin="round" stroke-miterlimit="10" stroke-width="2" d="M9 31L23 17 33 27 45 15"/><path d="M13 6A1 1 0 1 0 13 8 1 1 0 1 0 13 6zM23 6A1 1 0 1 0 23 8 1 1 0 1 0 23 6zM13 16A1 1 0 1 0 13 18 1 1 0 1 0 13 16zM33 6A1 1 0 1 0 33 8 1 1 0 1 0 33 6zM33 16A1 1 0 1 0 33 18 1 1 0 1 0 33 16zM23 26A1 1 0 1 0 23 28 1 1 0 1 0 23 26zM13 36A1 1 0 1 0 13 38 1 1 0 1 0 13 36zM23 36A1 1 0 1 0 23 38 1 1 0 1 0 23 36zM33 36A1 1 0 1 0 33 38 1 1 0 1 0 33 36zM43 6A1 1 0 1 0 43 8 1 1 0 1 0 43 6zM43 26A1 1 0 1 0 43 28 1 1 0 1 0 43 26zM43 36A1 1 0 1 0 43 38 1 1 0 1 0 43 36z" fill="#062c64"/><path fill="none" stroke="#062c64" stroke-miterlimit="10" stroke-width="2" d="M5 4L5 45 46 45"/></svg>
