<?xml version="1.0" encoding="utf-8"?>
<svg xmlns="http://www.w3.org/2000/svg" width="50" height="50" viewBox="0 0 50 50" fill="#062c64"><path fill="none" stroke="#062c64" stroke-miterlimit="10" stroke-width="2" d="M50,33c-2.403,0-38.597,0-41,0c-4.418,0-8,3.582-8,8s3.582,8,8,8c2.403,0,38.597,0,41,0"/><path fill="none" stroke="#062c64" stroke-linecap="round" stroke-miterlimit="10" stroke-width="2" d="M10 37A4 4 0 1 0 10 45 4 4 0 1 0 10 37zM45 37A4 4 0 1 0 45 45 4 4 0 1 0 45 37zM27 37A4 4 0 1 0 27 45 4 4 0 1 0 27 37z"/><path fill="none" stroke="#062c64" stroke-linecap="round" stroke-linejoin="round" stroke-miterlimit="10" stroke-width="2" d="M32.5,5h-11C20.672,5,20,5.672,20,6.5S20.672,8,21.5,8h11C33.328,8,34,7.328,34,6.5S33.328,5,32.5,5z"/><path fill="none" stroke="#062c64" stroke-linejoin="round" stroke-miterlimit="10" stroke-width="2" d="M45,1c0.552,0,1,0.448,1,1v26c0,0.552-0.448,1-1,1H9c-0.552,0-1-0.448-1-1V2c0-0.552,0.448-1,1-1H45z"/></svg>
