<?xml version="1.0" encoding="utf-8"?>
<svg xmlns="http://www.w3.org/2000/svg" viewBox="0 0 50 50" fill="#062c64"><path fill="none" stroke="#062c64" stroke-linecap="round" stroke-linejoin="round" stroke-miterlimit="10" stroke-width="2" d="M38,6c-4.909,0-13,0-13,0s-8.091,0-13,0c-6.119,0-9,2.024-9,4v32c0,1.105,0.895,2,2,2h40c1.105,0,2-0.895,2-2V10C47,8.024,44.119,6,38,6z"/><path fill="none" stroke="#062c64" stroke-linecap="round" stroke-linejoin="round" stroke-miterlimit="10" stroke-width="2" d="M11 13H28V20H11zM41 44H9v-7c0-1.657 1.343-3 3-3h26c1.657 0 3 1.343 3 3V44zM37.5 17A4.5 4.5 0 1 0 37.5 26 4.5 4.5 0 1 0 37.5 17z"/><path d="M37.5 20A1.5 1.5 0 1 0 37.5 23 1.5 1.5 0 1 0 37.5 20zM23.5 25A1.5 1.5 0 1 0 23.5 28 1.5 1.5 0 1 0 23.5 25z" fill="#062c64"/><path fill="none" stroke="#062c64" stroke-linecap="round" stroke-linejoin="round" stroke-miterlimit="10" stroke-width="2" d="M35.5 44L35.5 44c-.828 0-1.5-.672-1.5-1.5v-3c0-.828.672-1.5 1.5-1.5l0 0c.828 0 1.5.672 1.5 1.5v3C37 43.328 36.328 44 35.5 44zM28.5 44L28.5 44c-.828 0-1.5-.672-1.5-1.5v-3c0-.828.672-1.5 1.5-1.5h0c.828 0 1.5.672 1.5 1.5v3C30 43.328 29.328 44 28.5 44zM21.5 44L21.5 44c-.828 0-1.5-.672-1.5-1.5v-3c0-.828.672-1.5 1.5-1.5h0c.828 0 1.5.672 1.5 1.5v3C23 43.328 22.328 44 21.5 44zM14.5 44L14.5 44c-.828 0-1.5-.672-1.5-1.5v-3c0-.828.672-1.5 1.5-1.5h0c.828 0 1.5.672 1.5 1.5v3C16 43.328 15.328 44 14.5 44z"/></svg>
