<?xml version="1.0" encoding="utf-8"?>
<svg xmlns="http://www.w3.org/2000/svg" viewBox="0 0 50 50" fill="#062c64"><path fill="none" stroke="#062c64" stroke-miterlimit="10" stroke-width="2" d="M39 1L49 1 49 49 39 49M49 25L39 25M28 25L1 25M49 17L43 17M49 9L43 9M49 41L43 41M49 33L43 33"/><path fill="none" stroke="#062c64" stroke-linecap="round" stroke-linejoin="round" stroke-miterlimit="10" stroke-width="2" d="M1 49L1 1M4 43L4 7M10 37.5L10 12.5M16 44L16 6M28 41L28 9M7 33L7 17M13 31L13 19M25 30L25 20M19 33L19 17M22 49L22 1"/></svg>
